<svg id="svg" fill="#000000" stroke="#000000" width="200px" height="200px" version="1.1" viewBox="144 144 512 512" xmlns="http://www.w3.org/2000/svg">
    <g id="IconSvg_bgCarrier" stroke-width="0"></g>
    <g id="IconSvg_tracerCarrier" stroke-linecap="round" stroke-linejoin="round" stroke="#CCCCCC"></g>
     <g id="IconSvg_iconCarrier">
      <path xmlns="http://www.w3.org/2000/svg" d="m324.43 412.59c0-20.836-16.949-37.785-37.785-37.785h-75.57c-20.84 0-37.785 16.949-37.785 37.785v214.12h151.14l-0.003907-113.36h302.29v-75.57h-302.29zm-37.785 176.33h-75.57v-25.191h75.57zm0-50.379h-75.57v-125.95h75.57v25.191h-50.383v75.57h50.383zm1.5469-50.383h-26.738v-25.191h36.812zm289.12-25.188h24.219v25.191h-34.293zm-62.977 0h35.848l-10.078 25.191h-35.848zm-62.977 0h35.848l-10.078 25.191h-35.848zm-62.977 0h35.848l-10.078 25.191h-35.848zm-62.977 0h35.848l-10.078 25.191h-35.848z"></path>

      </g>
      </svg>