<svg id="svg" fill="#ffffff" stroke="#ffffff" width="200" height="200" version="1.1" viewBox="144 144 512 512" xmlns="http://www.w3.org/2000/svg">
    <g id="IconSvg_bgCarrier" stroke-width="0"></g>
    <g id="IconSvg_tracerCarrier" stroke-linecap="round" stroke-linejoin="round" stroke="#CCCCCC" stroke-width="0">
      <g xmlns="http://www.w3.org/2000/svg">
  <path d="m650.45 422.39c0-49.602-40.352-89.949-89.949-89.949h-1.5469l-42.879-121.68c-1.4219-4.0312-5.2305-6.7266-9.5078-6.7266h-212.57c-4.2578 0-8.0625 2.6797-9.4922 6.6914l-43.43 121.71h-1.5781c-49.602 0-89.949 40.352-89.949 89.949 0 48.125 38.008 87.43 85.566 89.738v43.891c0 22.016 17.914 39.934 39.938 39.934h20.898c22.023 0 39.938-17.914 39.938-39.934v-43.672h128.21v43.672c0 22.016 17.922 39.934 39.941 39.934h20.898c22.016 0 39.934-17.914 39.934-39.934v-43.891c47.562-2.3086 85.574-41.609 85.574-89.738zm-349.35-198.2h198.34l38.152 108.25-275.11-0.003906zm14.645 331.83c0 10.906-8.8789 19.781-19.785 19.781h-20.898c-10.914 0-19.785-8.8711-19.785-19.781v-43.672h60.473v43.672zm209.21 19.781h-20.898c-10.914 0-19.789-8.8711-19.789-19.781v-43.672h60.469v43.672c-0.003907 10.906-8.875 19.781-19.781 19.781zm35.547-83.605h-321c-38.484 0-69.797-31.316-69.797-69.805 0-38.484 31.312-69.797 69.797-69.797h321c38.484 0 69.797 31.312 69.797 69.797-0.003906 38.488-31.312 69.805-69.801 69.805z"></path>
  <path d="m259.1 377.98c-24.488 0-44.414 19.926-44.414 44.414s19.926 44.414 44.414 44.414c24.488 0 44.414-19.926 44.414-44.414 0.003906-24.488-19.922-44.414-44.414-44.414zm0 68.684c-13.383 0-24.262-10.883-24.262-24.262 0-13.375 10.887-24.262 24.262-24.262s24.262 10.887 24.262 24.262c0.003906 13.379-10.887 24.262-24.262 24.262z"></path>
  <path d="m540.9 377.98c-24.484 0-44.406 19.926-44.406 44.414s19.922 44.414 44.406 44.414c24.488 0 44.414-19.926 44.414-44.414 0.003906-24.488-19.922-44.414-44.414-44.414zm0 68.684c-13.371 0-24.254-10.883-24.254-24.262 0-13.375 10.883-24.262 24.254-24.262 13.383 0 24.262 10.887 24.262 24.262 0.003906 13.379-10.879 24.262-24.262 24.262z"></path>
  <path d="m502.55 295.12h-205.1c-5.5625 0-10.078 4.5156-10.078 10.078s4.5156 10.078 10.078 10.078h205.1c5.5625 0 10.078-4.5156 10.078-10.078-0.003906-5.5664-4.5117-10.078-10.078-10.078z"></path>
  <path d="m450.76 389.55h-101.53c-5.5625 0-10.078 4.5156-10.078 10.078s4.5156 10.078 10.078 10.078h101.53c5.5625 0 10.078-4.5156 10.078-10.078 0-5.5664-4.5117-10.078-10.078-10.078z"></path>
  <path d="m450.76 435.09h-101.53c-5.5625 0-10.078 4.5156-10.078 10.078s4.5156 10.078 10.078 10.078h101.53c5.5625 0 10.078-4.5156 10.078-10.078 0-5.5664-4.5117-10.078-10.078-10.078z"></path>
 </g>

      </g>
     <g id="IconSvg_iconCarrier">
      <g xmlns="http://www.w3.org/2000/svg">
  <path d="m650.45 422.39c0-49.602-40.352-89.949-89.949-89.949h-1.5469l-42.879-121.68c-1.4219-4.0312-5.2305-6.7266-9.5078-6.7266h-212.57c-4.2578 0-8.0625 2.6797-9.4922 6.6914l-43.43 121.71h-1.5781c-49.602 0-89.949 40.352-89.949 89.949 0 48.125 38.008 87.43 85.566 89.738v43.891c0 22.016 17.914 39.934 39.938 39.934h20.898c22.023 0 39.938-17.914 39.938-39.934v-43.672h128.21v43.672c0 22.016 17.922 39.934 39.941 39.934h20.898c22.016 0 39.934-17.914 39.934-39.934v-43.891c47.562-2.3086 85.574-41.609 85.574-89.738zm-349.35-198.2h198.34l38.152 108.25-275.11-0.003906zm14.645 331.83c0 10.906-8.8789 19.781-19.785 19.781h-20.898c-10.914 0-19.785-8.8711-19.785-19.781v-43.672h60.473v43.672zm209.21 19.781h-20.898c-10.914 0-19.789-8.8711-19.789-19.781v-43.672h60.469v43.672c-0.003907 10.906-8.875 19.781-19.781 19.781zm35.547-83.605h-321c-38.484 0-69.797-31.316-69.797-69.805 0-38.484 31.312-69.797 69.797-69.797h321c38.484 0 69.797 31.312 69.797 69.797-0.003906 38.488-31.312 69.805-69.801 69.805z"></path>
  <path d="m259.1 377.98c-24.488 0-44.414 19.926-44.414 44.414s19.926 44.414 44.414 44.414c24.488 0 44.414-19.926 44.414-44.414 0.003906-24.488-19.922-44.414-44.414-44.414zm0 68.684c-13.383 0-24.262-10.883-24.262-24.262 0-13.375 10.887-24.262 24.262-24.262s24.262 10.887 24.262 24.262c0.003906 13.379-10.887 24.262-24.262 24.262z"></path>
  <path d="m540.9 377.98c-24.484 0-44.406 19.926-44.406 44.414s19.922 44.414 44.406 44.414c24.488 0 44.414-19.926 44.414-44.414 0.003906-24.488-19.922-44.414-44.414-44.414zm0 68.684c-13.371 0-24.254-10.883-24.254-24.262 0-13.375 10.883-24.262 24.254-24.262 13.383 0 24.262 10.887 24.262 24.262 0.003906 13.379-10.879 24.262-24.262 24.262z"></path>
  <path d="m502.55 295.12h-205.1c-5.5625 0-10.078 4.5156-10.078 10.078s4.5156 10.078 10.078 10.078h205.1c5.5625 0 10.078-4.5156 10.078-10.078-0.003906-5.5664-4.5117-10.078-10.078-10.078z"></path>
  <path d="m450.76 389.55h-101.53c-5.5625 0-10.078 4.5156-10.078 10.078s4.5156 10.078 10.078 10.078h101.53c5.5625 0 10.078-4.5156 10.078-10.078 0-5.5664-4.5117-10.078-10.078-10.078z"></path>
  <path d="m450.76 435.09h-101.53c-5.5625 0-10.078 4.5156-10.078 10.078s4.5156 10.078 10.078 10.078h101.53c5.5625 0 10.078-4.5156 10.078-10.078 0-5.5664-4.5117-10.078-10.078-10.078z"></path>
 </g>

      </g>
      </svg>