<svg width="22" height="18" viewBox="0 0 22 18" fill="none" xmlns="http://www.w3.org/2000/svg">
<path d="M9 6L15 12M9 12L15 6M21 9C21 5.229 21 3.343 19.828 2.172C18.656 1.001 16.771 1 13 1H10C8.037 1 7.056 1 6.211 1.422C5.367 1.845 4.778 2.63 3.6 4.2C1.867 6.511 1 7.667 1 9C1 10.333 1.867 11.489 3.6 13.8C4.778 15.37 5.367 16.155 6.211 16.578C7.056 17 8.037 17 10 17H13C16.771 17 18.657 17 19.828 15.828C20.999 14.656 21 12.771 21 9Z" stroke="#8C8F94" stroke-width="1.5" stroke-linecap="round" stroke-linejoin="round"/>
</svg>
