<svg id="svg" fill="#ffffff" stroke="#ffffff" width="200" height="200" version="1.1" viewBox="144 144 512 512" xmlns="http://www.w3.org/2000/svg">
    <g id="IconSvg_bgCarrier" stroke-width="0"></g>
    <g id="IconSvg_tracerCarrier" stroke-linecap="round" stroke-linejoin="round" stroke="#CCCCCC" stroke-width="0">
      <path xmlns="http://www.w3.org/2000/svg" d="m523.18 303.21v215.58c0 25.695-21.16 46.855-46.855 46.855h-152.61c-25.746 0-46.906-21.16-46.906-46.855v-215.58h-16.676c-14.461 0-14.461-21.965 0-21.965h85.598v-21.059c0-13.754 10.781-25.844 24.836-25.844h58.895c14.008 0 24.836 12.141 24.836 25.844v21.059h85.547c14.461 0 14.461 21.965 0 21.965h-16.676zm-155.48-21.965h64.59v-21.059c0-1.6133-0.95703-3.8789-2.8203-3.8789h-58.895c-1.9141 0-2.8711 2.2656-2.8711 3.8789v21.059zm80.156 201.07c0 14.41-21.965 14.41-21.965 0v-119.61c0-14.41 21.965-14.41 21.965 0zm-73.758 0c0 14.41-21.965 14.41-21.965 0v-119.61c0-14.41 21.965-14.461 21.965 0zm127.11-179.11h-202.38v215.58c0 13.703 11.133 24.887 24.887 24.887h152.61c13.703 0 24.887-11.184 24.887-24.887z"></path>

      </g>
     <g id="IconSvg_iconCarrier">
      <path xmlns="http://www.w3.org/2000/svg" d="m523.18 303.21v215.58c0 25.695-21.16 46.855-46.855 46.855h-152.61c-25.746 0-46.906-21.16-46.906-46.855v-215.58h-16.676c-14.461 0-14.461-21.965 0-21.965h85.598v-21.059c0-13.754 10.781-25.844 24.836-25.844h58.895c14.008 0 24.836 12.141 24.836 25.844v21.059h85.547c14.461 0 14.461 21.965 0 21.965h-16.676zm-155.48-21.965h64.59v-21.059c0-1.6133-0.95703-3.8789-2.8203-3.8789h-58.895c-1.9141 0-2.8711 2.2656-2.8711 3.8789v21.059zm80.156 201.07c0 14.41-21.965 14.41-21.965 0v-119.61c0-14.41 21.965-14.41 21.965 0zm-73.758 0c0 14.41-21.965 14.41-21.965 0v-119.61c0-14.41 21.965-14.461 21.965 0zm127.11-179.11h-202.38v215.58c0 13.703 11.133 24.887 24.887 24.887h152.61c13.703 0 24.887-11.184 24.887-24.887z"></path>

      </g>
      </svg>