<svg id="svg" fill="#ffffff" stroke="#ffffff" width="200" height="200" version="1.1" viewBox="144 144 512 512" xmlns="http://www.w3.org/2000/svg">
    <g id="IconSvg_bgCarrier" stroke-width="0"></g>
    <g id="IconSvg_tracerCarrier" stroke-linecap="round" stroke-linejoin="round" stroke="#CCCCCC" stroke-width="0">
      <g xmlns="http://www.w3.org/2000/svg">
  <path d="m539.2 336.02c-4.1328 0-8.2617-1.5625-11.41-4.7109l-59.098-59.098c-6.2969-6.2969-6.2969-16.5 0-22.797s16.5-6.2969 22.797 0l59.098 59.098c6.2969 6.2969 6.2969 16.5 0 22.797-3.1211 3.1484-7.2539 4.7109-11.387 4.7109z"></path>
  <path d="m312.86 562.38c-4.1328 0-8.2617-1.5625-11.41-4.7109-6.2969-6.2969-6.2969-16.5 0-22.797l261.65-261.68c5.1641-5.1641 8.0625-11.941 8.1875-19.07 0.10156-6.9258-2.4688-13.375-7.2539-18.164-10-10-26.727-9.5977-37.258 0.93359l-261.63 261.65c-6.2969 6.2969-16.5 6.2969-22.797 0s-6.2969-16.5 0-22.797l261.63-261.65c11.133-11.133 25.82-17.383 41.363-17.633 15.742-0.25 30.48 5.668 41.488 16.676 11.035 11.031 16.953 25.77 16.703 41.512-0.25 15.543-6.5 30.23-17.633 41.363l-261.66 261.63c-3.1484 3.1484-7.2812 4.7344-11.387 4.7344z"></path>
  <path d="m212.58 603.54c-4.207 0-8.3125-1.6367-11.41-4.7109-4.6094-4.6094-5.9961-11.512-3.5-17.531l41.16-100.29c2.0391-4.9883 6.4492-8.6133 11.738-9.6719 5.2891-1.0586 10.758 0.60547 14.559 4.4102l59.098 59.098c3.8047 3.8047 5.4648 9.2695 4.4102 14.559-1.0586 5.2891-4.6836 9.6992-9.6719 11.738l-100.29 41.16c-1.9688 0.82812-4.0312 1.2344-6.0977 1.2344zm46.879-87.891-17.332 42.195 42.195-17.332z"></path>
 </g>

      </g>
     <g id="IconSvg_iconCarrier">
      <g xmlns="http://www.w3.org/2000/svg">
  <path d="m539.2 336.02c-4.1328 0-8.2617-1.5625-11.41-4.7109l-59.098-59.098c-6.2969-6.2969-6.2969-16.5 0-22.797s16.5-6.2969 22.797 0l59.098 59.098c6.2969 6.2969 6.2969 16.5 0 22.797-3.1211 3.1484-7.2539 4.7109-11.387 4.7109z"></path>
  <path d="m312.86 562.38c-4.1328 0-8.2617-1.5625-11.41-4.7109-6.2969-6.2969-6.2969-16.5 0-22.797l261.65-261.68c5.1641-5.1641 8.0625-11.941 8.1875-19.07 0.10156-6.9258-2.4688-13.375-7.2539-18.164-10-10-26.727-9.5977-37.258 0.93359l-261.63 261.65c-6.2969 6.2969-16.5 6.2969-22.797 0s-6.2969-16.5 0-22.797l261.63-261.65c11.133-11.133 25.82-17.383 41.363-17.633 15.742-0.25 30.48 5.668 41.488 16.676 11.035 11.031 16.953 25.77 16.703 41.512-0.25 15.543-6.5 30.23-17.633 41.363l-261.66 261.63c-3.1484 3.1484-7.2812 4.7344-11.387 4.7344z"></path>
  <path d="m212.58 603.54c-4.207 0-8.3125-1.6367-11.41-4.7109-4.6094-4.6094-5.9961-11.512-3.5-17.531l41.16-100.29c2.0391-4.9883 6.4492-8.6133 11.738-9.6719 5.2891-1.0586 10.758 0.60547 14.559 4.4102l59.098 59.098c3.8047 3.8047 5.4648 9.2695 4.4102 14.559-1.0586 5.2891-4.6836 9.6992-9.6719 11.738l-100.29 41.16c-1.9688 0.82812-4.0312 1.2344-6.0977 1.2344zm46.879-87.891-17.332 42.195 42.195-17.332z"></path>
 </g>

      </g>
      </svg>