<svg id="svg" fill="#000000" stroke="#000000" width="200px" height="200px" version="1.1" viewBox="144 144 512 512" xmlns="http://www.w3.org/2000/svg">
    <g id="IconSvg_bgCarrier" stroke-width="0"></g>
    <g id="IconSvg_tracerCarrier" stroke-linecap="round" stroke-linejoin="round" stroke="#CCCCCC"></g>
     <g id="IconSvg_iconCarrier">
      <g xmlns="http://www.w3.org/2000/svg">
  <path d="m625.66 646.66h-451.33c-11.547 0-20.992-9.4453-20.992-20.992v-451.33c0-11.547 9.4453-20.992 20.992-20.992h452.38c11.547 0 20.992 9.4453 20.992 20.992v452.38c-1.0469 10.496-10.496 19.945-22.039 19.945zm-431.39-40.934h411.45v-411.45h-411.45z"></path>
  <path d="m234.16 335.97v-107.06h80.82v12.594h-66.125v32.539h61.926v12.594h-61.926v36.734h68.223v12.594z"></path>
  <path d="m326.53 335.97 43.035-55.629-37.785-51.43h17.844l19.941 27.289c4.1992 5.2461 7.3477 10.496 9.4453 12.594 2.0977-4.1992 5.2461-8.3984 8.3984-12.594l23.09-27.289h15.742l-38.836 50.383 41.984 56.68-18.891-0.003906-28.34-37.785c-2.0977-2.0977-3.1484-4.1992-5.2461-7.3477-2.0977 4.1992-4.1992 6.2969-5.2461 8.3984l-28.34 36.734z"></path>
  <path d="m445.13 335.97v-107.06h14.695v106.01l-14.695-0.003906z"></path>
  <path d="m514.41 335.97v-94.465h-36.734l-0.003906-12.594h88.168v12.594h-36.734v93.414h-14.695z"></path>
  <path d="m498.66 530.15c-5.2461 0-10.496-2.0977-14.695-6.2969l-83.969-83.969-83.969 83.969c-8.3984 8.3984-20.992 8.3984-29.391 0-8.3984-8.3984-8.3984-20.992 0-29.391l98.664-98.664c8.3984-8.3984 20.992-8.3984 29.391 0l98.664 98.664c8.3984 8.3984 8.3984 20.992 0 29.391-4.1992 4.1992-9.4453 6.2969-14.695 6.2969z"></path>
  <path d="m400 574.23c-11.547 0-20.992-9.4453-20.992-20.992v-142.75c0-11.547 9.4453-20.992 20.992-20.992s20.992 9.4453 20.992 20.992v142.75c0 11.543-9.4492 20.992-20.992 20.992z"></path>
 </g>

      </g>
      </svg>